# xmcd
#
# Track frame offsets: 
#        150
#        21375
#        40642
#        65507
#        82132
#        108865
#        123185
#        140180
#        160790
#        185605
#        203017
#        225030
#        244930
#
# Disc length: 3452 seconds
#
# Revision: 4
# Processed by: cddbd v1.5.2PL0 Copyright (c) Steve Scherf et al.
# Submitted via: ExactAudioCopy v0.99pb3
#
DISCID=a90d7a0d
DTITLE=Johnny 'Yard Dog' Jones - Ain`t Gonna Worry
DYEAR=1996
DGENRE=Blues
TTITLE0=Don't Leave Me Broken-Hearted
TTITLE1=Cry For Me Baby
TTITLE2=Clouds In My Heart
TTITLE3=I Need A Sugar Mama
TTITLE4=Anything But Without You
TTITLE5=Tribute To Bill Doggett
TTITLE6=Your Used To Be
TTITLE7=Love Storm
TTITLE8=Ain't No Hootchie Coochie Man  
TTITLE9=Ain't Gonna Worry No More 
TTITLE10=You Can't Call The Blues
TTITLE11=A Changed Feeling
TTITLE12=Goin' Home
EXTD=Yard Dog`s debut features blues originals that tell vivid stories
EXTD=from joy to jealousy....it reflects everywhere he`s lived an
EXTD=d everything he`s felt....
EXTT0=
EXTT1=
EXTT2=
EXTT3=
EXTT4=
EXTT5=
EXTT6=
EXTT7=
EXTT8=
EXTT9=
EXTT10=
EXTT11=
EXTT12=
PLAYORDER=
